<svg xmlns="http://www.w3.org/2000/svg" width="1500" height="800" viewBox="0 0 1500 800" role="img" aria-labelledby="title desc"><title id="title">gpt-5.6-sol Prompt Version Pass Trend</title><desc id="desc">120-case medium test bank · complete regression runs only</desc><rect width="1500" height="800" fill="#FFFFFF"/><rect x="70" y="105" width="1370" height="590" rx="14" fill="#F8FAFC" stroke="#E2E8F0"/><g font-family="-apple-system,BlinkMacSystemFont,Segoe UI,PingFang SC,Hiragino Sans GB,Arial,sans-serif"><text x="750" y="57" text-anchor="middle" font-size="30" font-weight="700" fill="#0F172A">gpt-5.6-sol Prompt Version Pass Trend</text><text x="750" y="88" text-anchor="middle" font-size="17" fill="#64748B">120-case medium test bank · complete regression runs only</text><line x1="115" y1="549.0" x2="1370" y2="549.0" stroke="#CBD5E1"/><text x="97" y="554.0" text-anchor="end" font-size="15" fill="#475569">60</text><text x="1388" y="554.0" font-size="15" fill="#475569">50.0%</text><line x1="115" y1="448.0" x2="1370" y2="448.0" stroke="#CBD5E1"/><text x="97" y="453.0" text-anchor="end" font-size="15" fill="#475569">75</text><text x="1388" y="453.0" font-size="15" fill="#475569">62.5%</text><line x1="115" y1="347.0" x2="1370" y2="347.0" stroke="#CBD5E1"/><text x="97" y="352.0" text-anchor="end" font-size="15" fill="#475569">90</text><text x="1388" y="352.0" font-size="15" fill="#475569">75.0%</text><line x1="115" y1="246.0" x2="1370" y2="246.0" stroke="#CBD5E1"/><text x="97" y="251.0" text-anchor="end" font-size="15" fill="#475569">105</text><text x="1388" y="251.0" font-size="15" fill="#475569">87.5%</text><line x1="115" y1="145.0" x2="1370" y2="145.0" stroke="#CBD5E1"/><text x="97" y="150.0" text-anchor="end" font-size="15" fill="#475569">120</text><text x="1388" y="150.0" font-size="15" fill="#475569">100.0%</text><line x1="115" y1="145" x2="115" y2="650" stroke="#94A3B8" stroke-width="1.5"/><line x1="115" y1="650" x2="1370" y2="650" stroke="#94A3B8" stroke-width="1.5"/><line x1="115.0" y1="650" x2="115.0" y2="656" stroke="#94A3B8"/><text x="115.0" y="681" text-anchor="middle" font-size="14" fill="#475569">5.5 baseline</text><line x1="229.1" y1="650" x2="229.1" y2="656" stroke="#94A3B8"/><text x="229.1" y="681" text-anchor="middle" font-size="14" fill="#475569">v5</text><line x1="343.2" y1="650" x2="343.2" y2="656" stroke="#94A3B8"/><text x="343.2" y="681" text-anchor="middle" font-size="14" fill="#475569">v18</text><line x1="457.3" y1="650" x2="457.3" y2="656" stroke="#94A3B8"/><text x="457.3" y="681" text-anchor="middle" font-size="14" fill="#475569">v19</text><line x1="571.4" y1="650" x2="571.4" y2="656" stroke="#94A3B8"/><text x="571.4" y="681" text-anchor="middle" font-size="14" fill="#475569">v20</text><line x1="685.5" y1="650" x2="685.5" y2="656" stroke="#94A3B8"/><text x="685.5" y="681" text-anchor="middle" font-size="14" fill="#475569">v21</text><line x1="799.5" y1="650" x2="799.5" y2="656" stroke="#94A3B8"/><text x="799.5" y="681" text-anchor="middle" font-size="14" fill="#475569">v24</text><line x1="913.6" y1="650" x2="913.6" y2="656" stroke="#94A3B8"/><text x="913.6" y="681" text-anchor="middle" font-size="14" fill="#475569">v30</text><line x1="1027.7" y1="650" x2="1027.7" y2="656" stroke="#94A3B8"/><text x="1027.7" y="681" text-anchor="middle" font-size="14" fill="#475569">v31</text><line x1="1141.8" y1="650" x2="1141.8" y2="656" stroke="#94A3B8"/><text x="1141.8" y="681" text-anchor="middle" font-size="14" fill="#475569">v32</text><line x1="1255.9" y1="650" x2="1255.9" y2="656" stroke="#94A3B8"/><text x="1255.9" y="681" text-anchor="middle" font-size="14" fill="#475569">v33</text><line x1="1370.0" y1="650" x2="1370.0" y2="656" stroke="#94A3B8"/><text x="1370.0" y="681" text-anchor="middle" font-size="14" fill="#475569">v35</text><text x="742" y="735" text-anchor="middle" font-size="17" fill="#334155">Prompt version</text><text x="29" y="400" transform="rotate(-90 29 400)" text-anchor="middle" font-size="17" fill="#334155">Passing cases (out of 120)</text><polyline points="115.0,380.7 229.1,145.0 343.2,239.3 799.5,151.7 1141.8,151.7 1255.9,145.0 1370.0,145.0" fill="none" stroke="#2563EB" stroke-width="4" stroke-linecap="round" stroke-linejoin="round"/><circle cx="115.0" cy="380.7" r="7" fill="#2563EB" stroke="#fff" stroke-width="2"/><text x="115.0" y="367.7" text-anchor="middle" font-size="13" font-weight="700" fill="#2563EB">85</text><circle cx="229.1" cy="145.0" r="7" fill="#2563EB" stroke="#fff" stroke-width="2"/><text x="229.1" y="169.0" text-anchor="middle" font-size="13" font-weight="700" fill="#2563EB">120</text><circle cx="343.2" cy="239.3" r="7" fill="#2563EB" stroke="#fff" stroke-width="2"/><text x="343.2" y="226.3" text-anchor="middle" font-size="13" font-weight="700" fill="#2563EB">106</text><circle cx="799.5" cy="151.7" r="7" fill="#2563EB" stroke="#fff" stroke-width="2"/><text x="799.5" y="175.7" text-anchor="middle" font-size="13" font-weight="700" fill="#2563EB">119</text><circle cx="1141.8" cy="151.7" r="7" fill="#2563EB" stroke="#fff" stroke-width="2"/><text x="1141.8" y="175.7" text-anchor="middle" font-size="13" font-weight="700" fill="#2563EB">119</text><circle cx="1255.9" cy="145.0" r="7" fill="#2563EB" stroke="#fff" stroke-width="2"/><text x="1255.9" y="169.0" text-anchor="middle" font-size="13" font-weight="700" fill="#2563EB">120</text><circle cx="1370.0" cy="145.0" r="7" fill="#2563EB" stroke="#fff" stroke-width="2"/><text x="1370.0" y="169.0" text-anchor="middle" font-size="13" font-weight="700" fill="#2563EB">120</text><polyline points="115.0,508.6 229.1,145.0 343.2,569.2 457.3,306.6 571.4,353.7 685.5,205.6 799.5,145.0 913.6,151.7 1027.7,212.3 1141.8,145.0 1255.9,145.0 1370.0,145.0" fill="none" stroke="#F59E0B" stroke-width="4" stroke-linecap="round" stroke-linejoin="round"/><rect x="108.0" y="501.6" width="14" height="14" rx="2" fill="#F59E0B" stroke="#fff" stroke-width="2"/><text x="115.0" y="495.6" text-anchor="middle" font-size="13" font-weight="700" fill="#F59E0B">66</text><rect x="222.1" y="138.0" width="14" height="14" rx="2" fill="#F59E0B" stroke="#fff" stroke-width="2"/><text x="229.1" y="187.0" text-anchor="middle" font-size="13" font-weight="700" fill="#F59E0B">120</text><rect x="336.2" y="562.2" width="14" height="14" rx="2" fill="#F59E0B" stroke="#fff" stroke-width="2"/><text x="343.2" y="556.2" text-anchor="middle" font-size="13" font-weight="700" fill="#F59E0B">57</text><rect x="450.3" y="299.6" width="14" height="14" rx="2" fill="#F59E0B" stroke="#fff" stroke-width="2"/><text x="457.3" y="293.6" text-anchor="middle" font-size="13" font-weight="700" fill="#F59E0B">96</text><rect x="564.4" y="346.7" width="14" height="14" rx="2" fill="#F59E0B" stroke="#fff" stroke-width="2"/><text x="571.4" y="340.7" text-anchor="middle" font-size="13" font-weight="700" fill="#F59E0B">89</text><rect x="678.5" y="198.6" width="14" height="14" rx="2" fill="#F59E0B" stroke="#fff" stroke-width="2"/><text x="685.5" y="192.6" text-anchor="middle" font-size="13" font-weight="700" fill="#F59E0B">111</text><rect x="792.5" y="138.0" width="14" height="14" rx="2" fill="#F59E0B" stroke="#fff" stroke-width="2"/><text x="799.5" y="187.0" text-anchor="middle" font-size="13" font-weight="700" fill="#F59E0B">120</text><rect x="906.6" y="144.7" width="14" height="14" rx="2" fill="#F59E0B" stroke="#fff" stroke-width="2"/><text x="913.6" y="193.7" text-anchor="middle" font-size="13" font-weight="700" fill="#F59E0B">119</text><rect x="1020.7" y="205.3" width="14" height="14" rx="2" fill="#F59E0B" stroke="#fff" stroke-width="2"/><text x="1027.7" y="199.3" text-anchor="middle" font-size="13" font-weight="700" fill="#F59E0B">110</text><rect x="1134.8" y="138.0" width="14" height="14" rx="2" fill="#F59E0B" stroke="#fff" stroke-width="2"/><text x="1141.8" y="187.0" text-anchor="middle" font-size="13" font-weight="700" fill="#F59E0B">120</text><rect x="1248.9" y="138.0" width="14" height="14" rx="2" fill="#F59E0B" stroke="#fff" stroke-width="2"/><text x="1255.9" y="187.0" text-anchor="middle" font-size="13" font-weight="700" fill="#F59E0B">120</text><rect x="1363.0" y="138.0" width="14" height="14" rx="2" fill="#F59E0B" stroke="#fff" stroke-width="2"/><text x="1370.0" y="187.0" text-anchor="middle" font-size="13" font-weight="700" fill="#F59E0B">120</text><polyline points="115.0,394.1 229.1,145.0 343.2,340.3 799.5,145.0 1255.9,145.0 1370.0,145.0" fill="none" stroke="#16A34A" stroke-width="4" stroke-linecap="round" stroke-linejoin="round"/><path d="M 115.0 386.1 L 107.0 401.1 L 123.0 401.1 Z" fill="#16A34A" stroke="#fff" stroke-width="2"/><text x="115.0" y="381.1" text-anchor="middle" font-size="13" font-weight="700" fill="#16A34A">83</text><path d="M 229.1 137.0 L 221.1 152.0 L 237.1 152.0 Z" fill="#16A34A" stroke="#fff" stroke-width="2"/><text x="229.1" y="205.0" text-anchor="middle" font-size="13" font-weight="700" fill="#16A34A">120</text><path d="M 343.2 332.3 L 335.2 347.3 L 351.2 347.3 Z" fill="#16A34A" stroke="#fff" stroke-width="2"/><text x="343.2" y="327.3" text-anchor="middle" font-size="13" font-weight="700" fill="#16A34A">91</text><path d="M 799.5 137.0 L 791.5 152.0 L 807.5 152.0 Z" fill="#16A34A" stroke="#fff" stroke-width="2"/><text x="799.5" y="205.0" text-anchor="middle" font-size="13" font-weight="700" fill="#16A34A">120</text><path d="M 1255.9 137.0 L 1247.9 152.0 L 1263.9 152.0 Z" fill="#16A34A" stroke="#fff" stroke-width="2"/><text x="1255.9" y="205.0" text-anchor="middle" font-size="13" font-weight="700" fill="#16A34A">120</text><path d="M 1370.0 137.0 L 1362.0 152.0 L 1378.0 152.0 Z" fill="#16A34A" stroke="#fff" stroke-width="2"/><text x="1370.0" y="205.0" text-anchor="middle" font-size="13" font-weight="700" fill="#16A34A">120</text><line x1="1000" y1="615" x2="1034" y2="615" stroke="#2563EB" stroke-width="4"/><circle cx="1017" cy="615" r="7" fill="#2563EB" stroke="#fff" stroke-width="2"/><text x="1045" y="620" font-size="16" fill="#334155">low</text><line x1="1145" y1="615" x2="1179" y2="615" stroke="#F59E0B" stroke-width="4"/><rect x="1155" y="608" width="14" height="14" rx="2" fill="#F59E0B" stroke="#fff" stroke-width="2"/><text x="1190" y="620" font-size="16" fill="#334155">medium</text><line x1="1290" y1="615" x2="1324" y2="615" stroke="#16A34A" stroke-width="4"/><path d="M 1307 607 L 1299 622 L 1315 622 Z" fill="#16A34A" stroke="#fff" stroke-width="2"/><text x="1335" y="620" font-size="16" fill="#334155">high</text><text x="750" y="778" text-anchor="middle" font-size="14" fill="#64748B">v5/v24/v32/v33/v35 use audited retry summaries where needed; incomplete 120-case runs are excluded.</text></g></svg>